<svg xmlns="http://www.w3.org/2000/svg" version="1.1" xmlns:xlink="http://www.w3.org/1999/xlink" xmlns:svgjs="http://svgjs.com/svgjs" width="1440" height="560" preserveAspectRatio="none" viewBox="0 0 1440 560"><g mask="url(&quot;#SvgjsMask1786&quot;)" fill="none"><rect width="1440" height="560" x="0" y="0" fill="url(#SvgjsLinearGradient1787)"></rect><path d="M280 83.05C244.4 83.05 198.05 112.29 198.05 140C198.05 167.02 243.97 192.5 280 192.5C304.03 192.5 318.18 166.61 318.18 140C318.18 111.89 304.46 83.05 280 83.05" stroke="rgba(255, 255, 255, 0.58)" stroke-width="2"></path><path d="M0 71.01C23.96 28.57 34.55 22.56 79.03 0C104.55 -12.95 109.51 0 140 0C210 0 210 0 280 0C297.08 0 314.15 -5.35 314.15 0C314.15 6.51 297.66 12.78 280 23.73C210.59 66.78 206.41 61.67 140 108C123.07 119.81 113.33 120.87 113.33 140C113.33 192.87 102.41 227.82 140 252C185.74 281.42 224 275.97 280 247.19C332.98 219.97 318 192.85 357.95 140C388 100.26 384.41 62 420 62C465.07 62 487.37 89.27 519.27 140C555.91 198.27 537.34 210.43 557.08 280C557.71 282.22 558.49 281.84 560 283.59C619.06 351.84 678.22 362.39 678.22 420C678.22 463.04 619.26 484.88 560 484.88C499.7 484.88 498.37 454.18 439.09 420C428.37 413.82 431.96 404.81 420 404.15C352.42 400.43 340.58 435.48 280 411.25C200.58 379.49 218.56 316.45 140 292.17C78.56 273.18 53.39 329.36 0 324.72C-16.61 323.28 0 302.36 0 280C0 210 0 210 0 140C0 105.5 -15.56 98.57 0 71.01" stroke="rgba(255, 255, 255, 0.58)" stroke-width="2"></path><path d="M801.61 140C773.18 69.96 732.78 42.91 744.55 0C751.98 -27.09 792.28 0 840 0C910 0 910 0 980 0C1014.28 0 1020.81 -15.09 1048.57 0C1090.81 22.96 1083.74 38.58 1120 76.09C1151.41 108.58 1183.91 103.95 1183.91 140C1183.91 190.35 1156.39 198.16 1120 248.89C1106.17 268.16 1096.53 260.22 1083.48 280C1040.08 345.77 996.8 366.6 1007.1 420C1015.06 461.25 1065.69 469.3 1120 469.3C1159.37 469.3 1161.39 449.4 1194.47 420C1231.39 387.19 1217.29 359.05 1260 344.88C1320.06 324.95 1334.57 367.67 1400 351.79C1468.21 335.23 1465.74 318.39 1527.27 280C1535.74 274.72 1536.41 264.44 1540 264.44C1542.78 264.44 1540 272.22 1540 280C1540 350 1540 350 1540 420C1540 450.68 1559.36 462.01 1540 481.37C1489.36 532.01 1470 520.68 1400 560C1400 560 1400 560 1400 560C1330 560 1330 560 1260 560C1190 560 1190 560 1120 560C1050 560 1050 560 980 560C910 560 910 560 840 560C814.8 560 801.99 577.81 789.6 560C753.3 507.81 729.44 480.97 742.61 420C754.64 364.31 791.95 373.98 840 326.67C863.04 303.98 884.8 303.11 884.8 280C884.8 257.37 855.87 261.92 840 235.2C814.28 191.92 820.91 187.56 801.61 140" stroke="rgba(255, 255, 255, 0.58)" stroke-width="2"></path><path d="M1260 52.5C1236.14 52.5 1207.5 15.38 1207.5 0C1207.5 -10.87 1233.75 0 1260 0C1278.11 0 1296.21 -9.51 1296.21 0C1296.21 16.74 1280.5 52.5 1260 52.5" stroke="rgba(255, 255, 255, 0.58)" stroke-width="2"></path><path d="M1540 90.22C1524.74 90.22 1483.61 29.48 1483.61 0C1483.61 -15.63 1529.16 -17.35 1540 0C1557.35 27.76 1552.94 90.22 1540 90.22" stroke="rgba(255, 255, 255, 0.58)" stroke-width="2"></path><path d="M211.04 560C211.04 513.23 245.72 424.12 280 424.12C314.17 424.12 347.94 513.05 347.94 560C347.94 580.99 313.97 560 280 560C245.52 560 211.04 581.17 211.04 560" stroke="rgba(255, 255, 255, 0.58)" stroke-width="2"></path><path d="M0 121.74C9.87 121.74 30 124.81 30 140C30 191.22 7.62 254.55 0 254.55C-7.38 254.55 0 197.27 0 140C0 130.87 -5.13 121.74 0 121.74" stroke="rgba(255, 255, 255, 0.58)" stroke-width="2"></path><path d="M140 8C136.49 8 135.48 2.68 135.48 0C135.48 -1.32 137.74 0 140 0C148.24 0 156.47 -1.89 156.47 0C156.47 2.11 146.99 8 140 8" stroke="rgba(255, 255, 255, 0.58)" stroke-width="2"></path><path d="M397.73 140C406.6 124.52 407.23 112 420 112C436.18 112 447.91 119.77 455.64 140C480 203.77 495.27 218.32 484.17 280C477.45 317.37 454.89 338.11 420 338.11C374.68 338.11 328.37 321.13 323.75 280C317.24 222.07 358.47 208.52 397.73 140" stroke="rgba(255, 255, 255, 0.58)" stroke-width="2"></path><path d="M840 53.85C826.91 29.37 824.09 20.98 824.09 0C824.09 -5.94 832.05 0 840 0C898.34 0 899.46 -4.77 956.67 0C969.46 1.07 971.37 2.08 980 11.67C1034.37 72.08 1082.67 81.71 1082.67 140C1082.67 186.4 1028.96 221.05 980 221.05C937.1 221.05 935.59 183.75 898.95 140C865.59 100.15 864.34 99.37 840 53.85" stroke="rgba(255, 255, 255, 0.58)" stroke-width="2"></path><path d="M1540 12.44C1537.89 12.44 1532.22 4.06 1532.22 0C1532.22 -2.16 1538.5 -2.39 1540 0C1542.39 3.83 1541.78 12.44 1540 12.44" stroke="rgba(255, 255, 255, 0.58)" stroke-width="2"></path><path d="M518.64 420C518.64 400.35 539.45 373.33 560 373.33C580.35 373.33 600.44 400.29 600.44 420C600.44 434.72 580.27 442.2 560 442.2C539.37 442.2 518.64 434.79 518.64 420" stroke="rgba(255, 255, 255, 0.58)" stroke-width="2"></path><path d="M1464.62 420C1464.62 408.07 1513.03 387.33 1540 387.33C1550.72 387.33 1540 403.66 1540 420C1540 426.71 1545.62 433.42 1540 433.42C1507.93 433.42 1464.62 431.12 1464.62 420" stroke="rgba(255, 255, 255, 0.58)" stroke-width="2"></path><path d="M263.28 560C263.28 548.66 271.69 527.06 280 527.06C288.28 527.06 296.47 548.62 296.47 560C296.47 565.09 288.24 560 280 560C271.64 560 263.28 565.13 263.28 560" stroke="rgba(255, 255, 255, 0.58)" stroke-width="2"></path><path d="M836.27 560C836.27 548.89 835.84 534.55 840 534.55C844.7 534.55 854 551.41 854 560C854 564.14 847 560 840 560C838.13 560 836.27 561.61 836.27 560" stroke="rgba(255, 255, 255, 0.58)" stroke-width="2"></path><path d="M1044.62 560C1044.62 548.97 1082.36 539.39 1120 518.59C1190.05 479.89 1206.07 429.65 1260 441C1304.41 450.35 1316.67 518.39 1316.67 560C1316.67 577.89 1288.34 560 1260 560C1190 560 1190 560 1120 560C1082.31 560 1044.62 569.67 1044.62 560" stroke="rgba(255, 255, 255, 0.58)" stroke-width="2"></path></g><defs><mask id="SvgjsMask1786"><rect width="1440" height="560" fill="#ffffff"></rect></mask><linearGradient x1="50%" y1="0%" x2="50%" y2="100%" gradientUnits="userSpaceOnUse" id="SvgjsLinearGradient1787"><stop stop-color="rgba(133, 150, 158, 1)" offset="0.28"></stop><stop stop-color="rgba(204, 170, 163, 1)" offset="0.92"></stop></linearGradient></defs></svg>